<svg xmlns="http://www.w3.org/2000/svg" viewBox="0 0 776.78 140.16"><defs><style>.cls-1{fill:#ffb500;}.cls-2{fill:#fff;}</style></defs><title>Asset 13</title><g id="Layer_2" data-name="Layer 2"><g id="Layer_1-2" data-name="Layer 1"><path class="cls-1" d="M23.64,101.34c-1.27,4.57,2,13.08,5.65,16.34q4.32-4.9,8.64-9.81Q53,90.74,68,73.58c1.39-1.59,3.32-1.7,5.09-2.16,5.68-1.47,11.39-2.79,17.09-4.17,2.55-.62,5.13-1.15,7.64-1.91a3.38,3.38,0,0,0,1.9-1.68C103.4,55,107,46.38,110.61,37.73c1.83-4.38,3.63-8.76,5.66-13.66l15.16,21.47L158.6,0l80.5,89.13c10-6.85,19.72-13.83,25.86-24.53,3.58-6.24,4.69-12.74.54-19.23-2.82-4.41-7-7.22-11.69-9.35-8.94-4.1-18.45-5.83-28.18-6.79a169.88,169.88,0,0,0-29.95-.48A4.16,4.16,0,0,1,191.44,27a26.77,26.77,0,0,0-2.15-2.43c3.88-1.23,32.07-1.68,41.68-.69,1.34.08,5.08.32,7.51.57,10.31,1,20.51,2.7,30.31,6.15,7.2,2.54,14.09,5.76,19.22,11.78a18.32,18.32,0,0,1,2.44,20.22c-3.71,7.72-9.6,13.53-16.12,18.78a155.8,155.8,0,0,1-35.28,20.94c-8.58,3.78-17.21,7.49-26,10.61-9.82,3.47-19.87,6.31-29.86,9.27-5.26,1.56-10.6,2.92-16,4.13-5.9,1.34-11.84,2.48-17.79,3.59-5.65,1.06-11.31,2.12-17,2.93-7,1-14,2-21,2.5-11.5.79-23,1.4-34.53,1.64a187.54,187.54,0,0,1-31.35-2.1c-9.39-1.39-18.63-3.41-27.35-7.28C12.44,125,7.08,121.82,3.31,116.54A17.19,17.19,0,0,1,1,100.66c2.34-7.47,7.39-13.11,13-18.17,10.34-9.28,22.16-16.37,34.71-22.21C56.8,56.51,65,52.83,73.33,49.7c9.47-3.54,19.18-6.41,28.79-9.56.08,0,.21.06.52.16-1.15,2.75-2.23,5.51-3.47,8.19a3.26,3.26,0,0,1-1.68,1.25C91.7,52.17,85.86,54.44,80.12,57A173.8,173.8,0,0,0,49.22,74.1c-3.91,2.77-7.53,5.94-11.25,9-1,.82-5.79,4.87-6.42,5.53C26.9,93.4,24.91,96.78,23.64,101.34ZM160,50.36c-1.75,3-3.28,5.73-5,8.38a2.11,2.11,0,0,0,.13,2.64c1.29,1.92,2.58,3.83,3.86,5.75q11.77,17.69,23.52,35.39c.09.14,0,.41,0,.71L120,51.9l-.32.32,18.75,38.5c-.77-.42-1.26-.62-1.68-.92-7.36-5.16-14.71-10.35-22.1-15.47a2.85,2.85,0,0,0-2.07-.28c-2,.48-3.87,1.12-5.78,1.74a6.57,6.57,0,0,0-1.16.69l28,36-.32.36-56.8-30.7C79.39,88.72,82,94.86,84.72,101c4.28,9.76,8.61,19.5,12.84,29.28.43,1,.9,1.32,1.89,1.23,6.41-.61,12.84-1,19.21-1.85,6.13-.79,12.25-1.78,18.28-3.08,10.39-2.23,20.79-4.48,31-7.26,8.82-2.39,17.53-5.24,26.1-8.41,8.1-3,16-6.62,23.88-10.08,2.7-1.17,5.26-2.65,8-4.07L160.9,20l-.35.22L180.84,73l-.32.17Zm-89.93,81.1-11.25-28a38.85,38.85,0,0,0,.14,6.85c.52,6.29,1,12.58,1.61,18.86,0,.47.54,1.22.91,1.27C64.25,130.86,67,131.12,70.07,131.46Z"/><path class="cls-2" d="M370.14,82V95.17H328.76V25.37h40.88V38.54H342.52v15h24.63V66.35H342.52V82Z"/><path class="cls-2" d="M379.9,58.87h37.39V71.24H379.9Z"/><path class="cls-2" d="M425.16,73.63h13.76c0,6.38,4,9.47,11.76,9.47,7,0,10.27-3,10.27-7,0-5-5.58-7.18-12.26-9.47-10-3.59-22.23-7.58-22.23-22.33C426.46,31,437.53,24,449.09,24c12.16,0,23.53,7.08,23.53,22.53H459c0-6.08-3.59-9.17-9.87-9.17-5.68,0-9,2.89-9,7,0,5.08,4.79,7.38,11.27,9.77,10.07,3.59,23.23,7.28,23.23,22,0,13.36-11,20.44-23.93,20.44C436.93,96.56,425.16,89.38,425.16,73.63Z"/><path class="cls-2" d="M482.59,73.83V25.37h13.76V72.73c0,6.48,3.59,10.37,11.67,10.37s11.76-3.89,11.76-10.37V25.37h13.66V73.83c0,14.76-11.37,22.73-25.42,22.73S482.59,88.59,482.59,73.83Z"/><path class="cls-2" d="M613.69,95.17H600V48.31L584.58,84h-10L559.15,48.31V95.17H545.39V25.37H561L579.59,68,598,25.37h15.65Z"/><path class="cls-2" d="M694.94,95.17H681.28V48.31L665.82,84h-10L640.4,48.31V95.17H626.64V25.37H642.3L660.84,68l18.45-42.67h15.65Z"/><path class="cls-2" d="M721.65,25.37V95.17H707.89V25.37Z"/><path class="cls-2" d="M776.78,38.54H759.93V95.17H746.17V38.54H729.42V25.37h47.36Z"/><path class="cls-2" d="M334.23,123.21h-1.72v6.37h-4.43V110.19h7.48a6.63,6.63,0,0,1,6.65,6.65,6.46,6.46,0,0,1-3.43,5.57l5.65,7.17h-5.15Zm-1.72-3.88h3a2.51,2.51,0,0,0,0-5h-3Z"/><path class="cls-2" d="M358.55,125.31v4.26H346.92V110.19h11.49v4.27h-7.06v3.24h6.37v4.15h-6.37v3.46Z"/><path class="cls-2" d="M361.32,123.49h4.43c0,1.47.8,2.16,2.74,2.16s2.38-.69,2.38-1.5c0-1.14-1.38-1.63-3.07-2.22-2.74-.94-6.2-2.08-6.2-6.31,0-3.88,3.16-5.82,6.45-5.82s6.7,1.94,6.7,6.48h-4.43c0-1.47-.75-2.16-2.27-2.16s-2,.69-2,1.5c0,1.16,1.14,1.72,2.74,2.3,2.77,1,6.54,2,6.54,6.23,0,3.88-3.1,5.82-6.81,5.82S361.32,128,361.32,123.49Z"/><path class="cls-2" d="M383.34,110.19v19.39h-4.43V110.19Z"/><path class="cls-2" d="M399.12,125.31v4.26H388V110.19h4.43v15.12Z"/><path class="cls-2" d="M406.88,110.19v19.39h-4.43V110.19Z"/><path class="cls-2" d="M423.22,125.31v4.26H411.59V110.19h11.49v4.27H416v3.24h6.37v4.15H416v3.46Z"/><path class="cls-2" d="M441.77,110.19v19.39h-3.32l-6.92-10.8v10.8H427.1V110.19h3.32l6.92,10.8v-10.8Z"/><path class="cls-2" d="M458.39,114.46H454v15.12h-4.43V114.46H445.1v-4.27h13.29Z"/><path class="cls-1" d="M483.15,129.58,482,128.5a10.08,10.08,0,0,1-5.43,1.47c-3.88,0-7.12-2.16-7.12-5.9a6.48,6.48,0,0,1,2.74-5.26,6,6,0,0,1-1-3.32c0-3.27,2.77-5.68,6.56-5.68,3.49,0,6.73,1.94,6.73,6.48h-4.43a2,2,0,0,0-2.3-2.16c-1.11,0-2.13.53-2.13,1.72,0,.94,1.05,1.91,1.8,2.66l4.32,4.29a7.45,7.45,0,0,0,.5-2.74h4.43a10.07,10.07,0,0,1-1.88,5.79l3.77,3.74Zm-4.18-4-4.1-3.91,0,0a2.59,2.59,0,0,0-.89,2c0,1.36.94,2.33,3,2.33A5.18,5.18,0,0,0,479,125.56Z"/><path class="cls-2" d="M504.64,110.19v19.39h-4.43V110.19Z"/><path class="cls-2" d="M524,110.19v19.39h-3.32l-6.92-10.8v10.8h-4.43V110.19h3.32L519.6,121v-10.8Z"/><path class="cls-2" d="M543.42,110.19v19.39H540.1l-6.92-10.8v10.8h-4.43V110.19h3.32L539,121v-10.8Z"/><path class="cls-2" d="M547.3,119.89A10.08,10.08,0,1,1,557.38,130,10,10,0,0,1,547.3,119.89Zm15.73,0a5.65,5.65,0,1,0-5.65,5.76A5.51,5.51,0,0,0,563,119.89Z"/><path class="cls-2" d="M568.84,110.19h4.85l4,14.26,4-14.26h4.85l-6,19.39h-5.65Z"/><path class="cls-2" d="M599.39,126.53h-6.81l-.89,3h-4.85l6.31-19.39h5.65l6.31,19.39h-4.85Zm-1.25-4.15L596,115l-2.16,7.34Z"/><path class="cls-2" d="M618.7,114.46h-4.43v15.12h-4.43V114.46H605.4v-4.27H618.7Z"/><path class="cls-2" d="M626.45,110.19v19.39H622V110.19Z"/><path class="cls-2" d="M629.5,110.19h4.85l4,14.26,4-14.26h4.85l-6,19.39h-5.65Z"/><path class="cls-2" d="M661.9,125.31v4.26H650.27V110.19h11.49v4.27H654.7v3.24h6.37v4.15H654.7v3.46Z"/><path class="cls-2" d="M330,10V18.1h-1.59V10Z"/><path class="cls-2" d="M333.7,10V18.1h-1.59V10Z"/><path class="cls-2" d="M337.37,10V18.1h-1.59V10Z"/><path class="cls-2" d="M344.33,11.55h-2V18.1h-1.59V11.55h-1.94V10h5.48Z"/><path class="cls-2" d="M353.81,16.65h-3.09l-.46,1.45h-1.72L351.28,10h2L356,18.1h-1.73Zm-.47-1.49-1.07-3.37-1.07,3.37Z"/><path class="cls-2" d="M362,16.58V18.1h-4.59V10H359v6.55Z"/><path class="cls-2" d="M368,16.58V18.1h-4.59V10H365v6.55Z"/><path class="cls-2" d="M374,16.65h-3.09l-.46,1.45h-1.72L371.5,10h2l2.75,8.08h-1.73Zm-.47-1.49-1.07-3.37-1.07,3.37Z"/><path class="cls-2" d="M383.44,10V18.1h-1.59V14.71h-2.68V18.1h-1.59V10h1.59v3.16h2.68V10Z"/><path class="cls-2" d="M390.08,16.65H387l-.46,1.45H384.8L387.55,10h2l2.75,8.08h-1.73Zm-.47-1.49-1.07-3.37-1.07,3.37Z"/><path class="cls-2" d="M400.47,15.53a2.51,2.51,0,0,1-2.55,2.57h-4.29V10H397a2.23,2.23,0,0,1,2.39,2.18,1.82,1.82,0,0,1-.3,1A2.6,2.6,0,0,1,400.47,15.53Zm-5.25-4v1.36h2.32a.85.85,0,0,0,.24-.59.74.74,0,0,0-.8-.77Zm3.66,3.93a1.07,1.07,0,0,0-1.15-1.17h-2.5v2.33h2.49A1.08,1.08,0,0,0,398.88,15.45Z"/><path class="cls-2" d="M406.43,16.65h-3.09l-.46,1.45h-1.72L403.91,10h2l2.75,8.08H406.9ZM406,15.16l-1.07-3.37-1.07,3.37Z"/><path class="cls-2" d="M417.31,14.06a3.89,3.89,0,0,1-3.89,4H410V10h3.44A3.89,3.89,0,0,1,417.31,14.06Zm-1.52,0a2.33,2.33,0,0,0-2.37-2.51h-1.85v5h1.85A2.33,2.33,0,0,0,415.79,14.06Z"/><path class="cls-2" d="M420.28,10v1.64a1.51,1.51,0,0,1-1.64,1.6V12.6c.52,0,.76-.26.76-.93h-.76V10Z"/><path class="cls-2" d="M421.64,15.61h1.59c0,.74.46,1.1,1.36,1.1s1.19-.35,1.19-.81-.65-.83-1.42-1.1c-1.15-.41-2.57-.88-2.57-2.58a2.4,2.4,0,0,1,2.62-2.35,2.51,2.51,0,0,1,2.72,2.61h-1.58c0-.7-.42-1.06-1.14-1.06s-1,.33-1,.81.55.85,1.3,1.13c1.17.42,2.69.84,2.69,2.55,0,1.55-1.27,2.36-2.77,2.36S421.64,17.43,421.64,15.61Z"/><path class="cls-1" d="M682.8,134.15l9.65-10c1.62-1.66,2.86-3.19,2.86-4.68a2.15,2.15,0,0,0-2.4-2.36,2.41,2.41,0,0,0-2.69,2.69H682.8c0-7,5-9.9,9.86-9.9,5.05,0,10,2.9,10,9.53,0,3.19-2,6.3-4.47,8.82l-4.14,4.1h9v7.17H682.8Z"/><path class="cls-1" d="M706.86,125c0-9,4.31-15.12,12-15.12s12,6.13,12,15.12-4.31,15.12-12,15.12S706.86,134,706.86,125Zm16.61,0c0-5.26-1.49-7.91-4.6-7.91s-4.6,2.65-4.6,7.91,1.49,7.91,4.6,7.91S723.48,130.3,723.48,125Z"/><path class="cls-1" d="M748.25,110.53v29h-7.42V118.08l-6.63,3.6v-7.54l6.63-3.61Z"/><path class="cls-1" d="M773.93,125.9l-8.74,13.63h-8.41l6.13-9.24c-5.63-.66-9.28-4.68-9.28-10.15,0-6,4.39-10.23,11-10.23s11,4.23,11,10.23A10.13,10.13,0,0,1,773.93,125.9Zm-9.32-2.28a3.46,3.46,0,1,0-3.56-3.48A3.3,3.3,0,0,0,764.61,123.63Z"/></g></g></svg>