<svg xmlns="http://www.w3.org/2000/svg" viewBox="0 0 788.13 567.58"><defs><style>.cls-1{fill:#fff;}</style></defs><title>Asset 10</title><g id="Layer_2" data-name="Layer 2"><g id="Layer_1-2" data-name="Layer 1"><path class="cls-1" d="M108.13,233.08c-2.93,10.5,4.65,30.07,13,37.58Q131,259.38,141,248.1q34.58-39.41,69.11-78.87c3.19-3.66,7.64-3.91,11.72-5,13.06-3.37,26.2-6.41,39.31-9.58,5.87-1.42,11.8-2.65,17.57-4.4a7.78,7.78,0,0,0,4.38-3.86c8.48-19.83,16.76-39.75,25.07-59.65,4.2-10.07,8.35-20.15,13-31.43L356,104.72,418.52,0,603.66,205c23-15.75,45.35-31.8,59.48-56.41,8.24-14.34,10.79-29.29,1.24-44.22-6.48-10.15-16.2-16.6-26.88-21.5-20.56-9.43-42.44-13.41-64.82-15.62a390.71,390.71,0,0,0-68.88-1.11c-4.2.33-7.32-.53-9.75-4.06a61.56,61.56,0,0,0-5-5.59c8.93-2.84,73.76-3.87,95.87-1.59,3.08.18,11.69.74,17.28,1.3,23.71,2.38,47.17,6.2,69.7,14.13,16.57,5.83,32.4,13.24,44.2,27.08,11.22,13.16,13.2,30.76,5.62,46.51-8.53,17.75-22.07,31.11-37.07,43.19C660,207,632.51,222.52,603.55,235.27c-19.73,8.69-39.59,17.23-59.9,24.4C521.07,267.65,498,274.18,475,281c-12.11,3.59-24.37,6.71-36.69,9.51-13.56,3.08-27.24,5.7-40.91,8.26-13,2.44-26,4.87-39.11,6.73-16,2.28-32.1,4.64-48.24,5.75-26.44,1.82-52.93,3.23-79.42,3.77a431.33,431.33,0,0,1-72.1-4.82c-21.6-3.2-42.84-7.84-62.89-16.73C82.36,287.57,70,280.18,61.37,268c-8-11.23-9.5-23.54-5.43-36.53,5.39-17.19,17-30.16,30-41.79,23.79-21.33,51-37.65,79.84-51.07,18.63-8.66,37.42-17.14,56.65-24.32,21.77-8.14,44.11-14.74,66.21-22,.19-.06.47.13,1.19.36-2.63,6.32-5.12,12.67-8,18.84-.6,1.29-2.41,2.27-3.87,2.88C264.66,120,251.22,125.2,238,131c-24.91,10.92-48.85,23.7-71.06,39.45-9,6.37-17.32,13.66-25.87,20.62-2.32,1.89-13.31,11.2-14.77,12.72C115.62,214.82,111,222.59,108.13,233.08ZM421.75,115.83c-4,6.86-7.54,13.19-11.41,19.27-1.51,2.37-1,4.11.3,6.07,3,4.41,5.94,8.81,8.88,13.23q27.07,40.69,54.1,81.4c.21.32,0,.94,0,1.64L329.8,119.36l-.73.73,43.11,88.55c-1.77-1-2.89-1.44-3.86-2.12-16.94-11.87-33.83-23.81-50.84-35.58a6.55,6.55,0,0,0-4.75-.64c-4.49,1.1-8.89,2.58-13.3,4a15.11,15.11,0,0,0-2.67,1.58l64.33,82.71-.75.82L229.71,188.8c6.63,15.25,12.72,29.37,18.9,43.45,9.84,22.45,19.8,44.84,29.53,67.34,1,2.28,2.08,3,4.35,2.83,14.73-1.4,29.52-2.35,44.19-4.24,14.09-1.82,28.16-4.1,42.05-7.08,23.89-5.13,47.81-10.31,71.38-16.69,20.27-5.49,40.32-12.06,60-19.35,18.62-6.89,36.71-15.24,54.93-23.17,6.2-2.7,12.09-6.1,18.46-9.36L423.81,46.09l-.79.51,46.64,121.2-.74.39ZM214.91,302.34,189,238a89.36,89.36,0,0,0,.33,15.74c1.2,14.46,2.38,28.93,3.71,43.38.1,1.07,1.24,2.8,2.09,2.93C201.52,301,207.94,301.57,214.91,302.34Z"/><path class="cls-1" d="M73.86,465.44v23.11H1.19V366H73v23.11H25.35v26.27H68.61v22.59H25.35v27.49Z"/><path class="cls-1" d="M91,424.81h65.67v21.71H91Z"/><path class="cls-1" d="M170.52,450.73h24.17c0,11.21,7,16.64,20.66,16.64,12.26,0,18-5.25,18-12.26,0-8.76-9.81-12.61-21.54-16.63-17.51-6.3-39-13.31-39-39.22,0-23.46,19.44-35.72,39.75-35.72,21.36,0,41.33,12.43,41.33,39.57h-24c0-10.68-6.3-16.11-17.34-16.11-10,0-15.76,5.08-15.76,12.26,0,8.93,8.41,13,19.79,17.16,17.69,6.3,40.8,12.78,40.8,38.7,0,23.46-19.26,35.9-42,35.9C191.18,491,170.52,478.39,170.52,450.73Z"/><path class="cls-1" d="M271.38,451.08V366h24.17v83.18c0,11.38,6.3,18.21,20.49,18.21,14.36,0,20.66-6.83,20.66-18.21V366h24v85.1c0,25.92-20,39.92-44.65,39.92S271.38,477,271.38,451.08Z"/><path class="cls-1" d="M501.66,488.55h-24v-82.3l-27.14,62.69H433l-27.14-62.69v82.3H381.71V366H409.2l32.57,74.95L474.16,366h27.49Z"/><path class="cls-1" d="M644.37,488.55h-24v-82.3l-27.14,62.69H575.73l-27.14-62.69v82.3H524.42V366h27.49l32.57,74.95L616.88,366h27.49Z"/><path class="cls-1" d="M691.3,366V488.55H667.13V366Z"/><path class="cls-1" d="M788.13,389.09H758.54v99.46H734.38V389.09H705V366h83.18Z"/><path class="cls-1" d="M10.8,537.81h-3V549H0V514.95H13.13a11.65,11.65,0,0,1,11.67,11.67,11.36,11.36,0,0,1-6,9.78L28.7,549h-9Zm-3-6.81h5.35a4.41,4.41,0,0,0,0-8.76H7.78Z"/><path class="cls-1" d="M53.51,541.51V549H33.08V514.95H53.27v7.49H40.86v5.69H52.05v7.3H40.86v6.08Z"/><path class="cls-1" d="M58.38,538.3h7.78c0,2.58,1.41,3.79,4.82,3.79,3.16,0,4.18-1.22,4.18-2.63,0-2-2.43-2.87-5.4-3.89-4.82-1.65-10.9-3.65-10.9-11.09,0-6.81,5.55-10.21,11.33-10.21,6,0,11.77,3.41,11.77,11.38H74.19c0-2.58-1.31-3.79-4-3.79-2.43,0-3.55,1.21-3.55,2.63,0,2,2,3,4.82,4,4.86,1.7,11.48,3.45,11.48,10.95,0,6.81-5.45,10.21-12,10.21C64.21,549.68,58.38,546.27,58.38,538.3Z"/><path class="cls-1" d="M97.05,514.95V549H89.27V514.95Z"/><path class="cls-1" d="M124.78,541.51V549H105.32V514.95h7.78v26.56Z"/><path class="cls-1" d="M138.4,514.95V549h-7.78V514.95Z"/><path class="cls-1" d="M167.1,541.51V549H146.67V514.95h20.19v7.49h-12.4v5.69h11.19v7.3H154.46v6.08Z"/><path class="cls-1" d="M199.7,514.95V549h-5.84L181.7,530v19h-7.78V514.95h5.84l12.16,19v-19Z"/><path class="cls-1" d="M228.89,522.44H221.1V549h-7.78V522.44h-7.78v-7.49h23.35Z"/><path class="cls-1" d="M272.38,549l-2-1.9a17.71,17.71,0,0,1-9.53,2.58c-6.81,0-12.5-3.79-12.5-10.36a11.38,11.38,0,0,1,4.82-9.24,10.62,10.62,0,0,1-1.75-5.84c0-5.74,4.86-10,11.53-10,6.13,0,11.82,3.41,11.82,11.38H267c0-2.58-1.7-3.79-4-3.79-1.95,0-3.75.92-3.75,3,0,1.65,1.85,3.36,3.16,4.67l7.59,7.54a13.08,13.08,0,0,0,.88-4.82h7.78a17.69,17.69,0,0,1-3.31,10.17l6.62,6.57ZM265,541.95l-7.2-6.86,0,0a4.54,4.54,0,0,0-1.56,3.45c0,2.38,1.65,4.09,5.35,4.09A9.08,9.08,0,0,0,265,541.95Z"/><path class="cls-1" d="M310.13,514.95V549h-7.78V514.95Z"/><path class="cls-1" d="M344.18,514.95V549h-5.84l-12.16-19v19H318.4V514.95h5.84l12.16,19v-19Z"/><path class="cls-1" d="M378.24,514.95V549H372.4l-12.16-19v19h-7.78V514.95h5.84l12.16,19v-19Z"/><path class="cls-1" d="M385.05,532a17.71,17.71,0,1,1,17.71,17.71A17.55,17.55,0,0,1,385.05,532Zm27.63,0a9.93,9.93,0,1,0-9.92,10.12A9.68,9.68,0,0,0,412.68,532Z"/><path class="cls-1" d="M422.9,514.95h8.51L438.46,540l7.05-25.05H454L443.43,549H433.5Z"/><path class="cls-1" d="M476.56,543.65h-12L463,549h-8.51l11.09-34.05h9.92L486.63,549h-8.51Zm-2.19-7.3-3.79-12.89-3.79,12.89Z"/><path class="cls-1" d="M510.46,522.44h-7.78V549H494.9V522.44h-7.78v-7.49h23.35Z"/><path class="cls-1" d="M524.09,514.95V549H516.3V514.95Z"/><path class="cls-1" d="M529.44,514.95H538L545,540l7.05-25.05h8.51L550,549H540Z"/><path class="cls-1" d="M586.36,541.51V549H565.93V514.95h20.19v7.49h-12.4v5.69H584.9v7.3H573.71v6.08Z"/><path class="cls-1" d="M3.42,339v14.18H.63V339Z"/><path class="cls-1" d="M9.87,339v14.18H7.07V339Z"/><path class="cls-1" d="M16.31,339v14.18h-2.8V339Z"/><path class="cls-1" d="M28.53,341.68H25.1v11.51h-2.8V341.68H18.9V339h9.63Z"/><path class="cls-1" d="M45.18,350.63H39.75l-.81,2.55h-3L40.75,339h3.46L49,353.19H46ZM44.35,348l-1.88-5.92L40.58,348Z"/><path class="cls-1" d="M59.49,350.51v2.67H51.42V339h2.8v11.51Z"/><path class="cls-1" d="M70.13,350.51v2.67H62.06V339h2.8v11.51Z"/><path class="cls-1" d="M80.71,350.63H75.27l-.81,2.55h-3L76.27,339h3.47l4.82,14.18h-3ZM79.88,348,78,342.1,76.11,348Z"/><path class="cls-1" d="M97.24,339v14.18h-2.8v-6h-4.7v6h-2.8V339h2.8v5.55h4.7V339Z"/><path class="cls-1" d="M108.89,350.63h-5.43l-.81,2.55h-3L104.45,339h3.47l4.82,14.18h-3Zm-.83-2.61-1.88-5.92L104.29,348Z"/><path class="cls-1" d="M127.15,348.67a4.4,4.4,0,0,1-4.48,4.52h-7.54V339H121a3.91,3.91,0,0,1,4.19,3.83,3.19,3.19,0,0,1-.53,1.72A4.56,4.56,0,0,1,127.15,348.67Zm-9.22-7.05V344H122a1.49,1.49,0,0,0,.43-1,1.3,1.3,0,0,0-1.4-1.36Zm6.42,6.91a1.89,1.89,0,0,0-2-2h-4.4v4.09h4.38A1.9,1.9,0,0,0,124.35,348.53Z"/><path class="cls-1" d="M137.62,350.63h-5.43l-.81,2.55h-3L133.19,339h3.47l4.82,14.18h-3Zm-.83-2.61-1.88-5.92L133,348Z"/><path class="cls-1" d="M156.73,346.09a6.83,6.83,0,0,1-6.83,7.09h-6V339h6A6.83,6.83,0,0,1,156.73,346.09Zm-2.67,0a4.1,4.1,0,0,0-4.15-4.42h-3.24v8.84h3.24A4.1,4.1,0,0,0,154.06,346.09Z"/><path class="cls-1" d="M161.94,339v2.88a2.64,2.64,0,0,1-2.88,2.82v-1.18c.91,0,1.34-.46,1.34-1.64h-1.34V339Z"/><path class="cls-1" d="M164.33,348.81h2.8c0,1.3.81,1.93,2.39,1.93,1.42,0,2.09-.61,2.09-1.42,0-1-1.13-1.46-2.49-1.93-2-.73-4.52-1.54-4.52-4.54,0-2.71,2.25-4.13,4.6-4.13s4.78,1.44,4.78,4.58H171.2c0-1.24-.73-1.86-2-1.86s-1.82.59-1.82,1.42c0,1,1,1.5,2.29,2,2,.73,4.72,1.48,4.72,4.48,0,2.71-2.23,4.15-4.86,4.15C166.72,353.47,164.33,352,164.33,348.81Z"/><path class="cls-1" d="M623.06,557l17-17.54c2.84-2.91,5-5.6,5-8.22s-1.38-4.15-4.22-4.15-4.73,1.53-4.73,4.73h-13c0-12.29,8.8-17.39,17.32-17.39,8.88,0,17.61,5.09,17.61,16.73,0,5.6-3.49,11.06-7.86,15.5l-7.28,7.2h15.86v12.59H623.06Z"/><path class="cls-1" d="M665.33,541c0-15.79,7.57-26.56,21.1-26.56s21.1,10.77,21.1,26.56-7.57,26.55-21.1,26.55S665.33,556.81,665.33,541Zm29.17,0c0-9.24-2.62-13.9-8.08-13.9s-8.08,4.66-8.08,13.9,2.62,13.89,8.08,13.89S694.51,550.26,694.51,541Z"/><path class="cls-1" d="M738,515.56v50.93H725V528.8l-11.64,6.33V521.89L725,515.56Z"/><path class="cls-1" d="M783.13,542.55l-15.35,23.94H753l10.77-16.22c-9.89-1.16-16.3-8.22-16.3-17.82,0-10.55,7.71-18,19.28-18s19.28,7.42,19.28,18A17.8,17.8,0,0,1,783.13,542.55Zm-16.37-4c3.49,0,6.26-2.11,6.26-6.11s-2.76-6-6.26-6-6.26,2.11-6.26,6S763.26,538.55,766.76,538.55Z"/></g></g></svg>