<svg xmlns="http://www.w3.org/2000/svg" viewBox="0 0 292.42 137"><defs><style>.cls-1{fill:#ffb500;}</style></defs><title>horizontal</title><g id="Layer_2" data-name="Layer 2"><g id="Layer_1-2" data-name="Layer 1"><path class="cls-1" d="M23.64,101.34c-1.27,4.57,2,13.08,5.65,16.34q4.32-4.9,8.64-9.81Q53,90.74,68,73.58c1.39-1.59,3.32-1.7,5.09-2.16,5.68-1.47,11.39-2.79,17.09-4.17,2.55-.62,5.13-1.15,7.64-1.91a3.38,3.38,0,0,0,1.9-1.68C103.4,55,107,46.38,110.61,37.73c1.83-4.38,3.63-8.76,5.66-13.66l15.16,21.47L158.6,0l80.5,89.13c10-6.85,19.72-13.83,25.86-24.53,3.58-6.24,4.69-12.74.54-19.23-2.82-4.41-7-7.22-11.69-9.35-8.94-4.1-18.45-5.83-28.18-6.79a169.88,169.88,0,0,0-29.95-.48A4.16,4.16,0,0,1,191.44,27a26.77,26.77,0,0,0-2.15-2.43c3.88-1.23,32.07-1.68,41.68-.69,1.34.08,5.08.32,7.51.57,10.31,1,20.51,2.7,30.31,6.15,7.2,2.54,14.09,5.76,19.22,11.78a18.32,18.32,0,0,1,2.44,20.22c-3.71,7.72-9.6,13.53-16.12,18.78a155.8,155.8,0,0,1-35.28,20.94c-8.58,3.78-17.21,7.49-26,10.61-9.82,3.47-19.87,6.31-29.86,9.27-5.26,1.56-10.6,2.92-16,4.13-5.9,1.34-11.84,2.48-17.79,3.59-5.65,1.06-11.31,2.12-17,2.93-7,1-14,2-21,2.5-11.5.79-23,1.4-34.53,1.64a187.54,187.54,0,0,1-31.35-2.1c-9.39-1.39-18.63-3.41-27.35-7.28C12.44,125,7.08,121.82,3.31,116.54A17.19,17.19,0,0,1,1,100.66c2.34-7.47,7.39-13.11,13-18.17,10.34-9.28,22.16-16.37,34.71-22.21C56.8,56.51,65,52.83,73.33,49.7c9.47-3.54,19.18-6.41,28.79-9.56.08,0,.21.06.52.16-1.15,2.75-2.23,5.51-3.47,8.19a3.26,3.26,0,0,1-1.68,1.25C91.7,52.17,85.86,54.44,80.12,57A173.8,173.8,0,0,0,49.22,74.1c-3.91,2.77-7.53,5.94-11.25,9-1,.82-5.79,4.87-6.42,5.53C26.9,93.4,24.91,96.78,23.64,101.34ZM160,50.36c-1.75,3-3.28,5.73-5,8.38a2.11,2.11,0,0,0,.13,2.64c1.29,1.92,2.58,3.83,3.86,5.75q11.77,17.69,23.52,35.39c.09.14,0,.41,0,.71L120,51.9l-.32.32,18.75,38.5c-.77-.42-1.26-.62-1.68-.92-7.36-5.16-14.71-10.35-22.1-15.47a2.85,2.85,0,0,0-2.07-.28c-2,.48-3.87,1.12-5.78,1.74a6.57,6.57,0,0,0-1.16.69l28,36-.32.36-56.8-30.7C79.39,88.72,82,94.86,84.72,101c4.28,9.76,8.61,19.5,12.84,29.28.43,1,.9,1.32,1.89,1.23,6.41-.61,12.84-1,19.21-1.85,6.13-.79,12.25-1.78,18.28-3.08,10.39-2.23,20.79-4.48,31-7.26,8.82-2.39,17.53-5.24,26.1-8.41,8.1-3,16-6.62,23.88-10.08,2.7-1.17,5.26-2.65,8-4.07L160.9,20l-.35.22L180.84,73l-.32.17Zm-89.93,81.1-11.25-28a38.85,38.85,0,0,0,.14,6.85c.52,6.29,1,12.58,1.61,18.86,0,.47.54,1.22.91,1.27C64.25,130.86,67,131.12,70.07,131.46Z"/></g></g></svg>