<svg xmlns="http://www.w3.org/2000/svg" viewBox="0 0 672.54 315.09"><defs><style>.cls-1{fill:#fff;}</style></defs><title>whiteVertical</title><g id="Layer_2" data-name="Layer 2"><g id="Layer_1-2" data-name="Layer 1"><path class="cls-1" d="M54.37,233.08c-2.93,10.5,4.65,30.07,13,37.58q9.94-11.28,19.88-22.56,34.58-39.41,69.11-78.87c3.19-3.66,7.64-3.91,11.72-5,13.06-3.37,26.2-6.41,39.31-9.58,5.87-1.42,11.8-2.65,17.57-4.4a7.78,7.78,0,0,0,4.38-3.86c8.48-19.83,16.76-39.75,25.07-59.65,4.2-10.07,8.35-20.15,13-31.43l34.87,49.38L364.77,0,549.91,205c23-15.75,45.35-31.8,59.48-56.41,8.24-14.34,10.79-29.29,1.24-44.22-6.48-10.15-16.2-16.6-26.88-21.5-20.56-9.43-42.44-13.41-64.82-15.62a390.71,390.71,0,0,0-68.88-1.11c-4.2.33-7.32-.53-9.75-4.06a61.56,61.56,0,0,0-5-5.59c8.93-2.84,73.76-3.87,95.87-1.59,3.08.18,11.69.74,17.28,1.3,23.71,2.38,47.17,6.2,69.7,14.13,16.57,5.83,32.4,13.24,44.2,27.08,11.22,13.16,13.2,30.76,5.62,46.51-8.53,17.75-22.07,31.11-37.07,43.19-24.73,19.92-52.18,35.41-81.14,48.16-19.73,8.69-39.59,17.23-59.9,24.4-22.58,8-45.69,14.51-68.67,21.32-12.11,3.59-24.37,6.71-36.69,9.51-13.56,3.08-27.24,5.7-40.91,8.26-13,2.44-26,4.87-39.11,6.73-16,2.28-32.1,4.64-48.24,5.75-26.44,1.82-52.93,3.23-79.42,3.77a431.33,431.33,0,0,1-72.1-4.82c-21.6-3.2-42.84-7.84-62.89-16.73C28.61,287.57,16.28,280.18,7.62,268c-8-11.23-9.5-23.54-5.43-36.53,5.39-17.19,17-30.16,30-41.79,23.79-21.33,51-37.65,79.84-51.07,18.63-8.66,37.42-17.14,56.65-24.32,21.77-8.14,44.11-14.74,66.21-22,.19-.06.47.13,1.19.36-2.63,6.32-5.12,12.67-8,18.84-.6,1.29-2.41,2.27-3.87,2.88C210.91,120,197.47,125.2,184.27,131c-24.91,10.92-48.85,23.7-71.06,39.45-9,6.37-17.32,13.66-25.87,20.62C85,192.94,74,202.25,72.56,203.77,61.87,214.82,57.3,222.59,54.37,233.08ZM368,115.83c-4,6.86-7.54,13.19-11.41,19.27-1.51,2.37-1,4.11.3,6.07,3,4.41,5.94,8.81,8.88,13.23q27.07,40.69,54.1,81.4c.21.32,0,.94,0,1.64L276,119.36l-.73.73,43.11,88.55c-1.77-1-2.89-1.44-3.86-2.12-16.94-11.87-33.83-23.81-50.84-35.58a6.55,6.55,0,0,0-4.75-.64c-4.49,1.1-8.89,2.58-13.3,4a15.11,15.11,0,0,0-2.67,1.58l64.33,82.71-.75.82L176,188.8c6.63,15.25,12.72,29.37,18.9,43.45,9.84,22.45,19.8,44.84,29.53,67.34,1,2.28,2.08,3,4.35,2.83,14.73-1.4,29.52-2.35,44.19-4.24,14.09-1.82,28.16-4.1,42.05-7.08,23.89-5.13,47.81-10.31,71.38-16.69,20.27-5.49,40.32-12.06,60-19.35,18.62-6.89,36.71-15.24,54.93-23.17,6.2-2.7,12.09-6.1,18.46-9.36L370.06,46.09l-.79.51,46.64,121.2-.74.39ZM161.16,302.34,135.28,238a89.36,89.36,0,0,0,.33,15.74c1.2,14.46,2.38,28.93,3.71,43.38.1,1.07,1.24,2.8,2.09,2.93C147.77,301,154.19,301.57,161.16,302.34Z"/></g></g></svg>